<?xml version="1.0" encoding="UTF-8"?>
<!DOCTYPE svg PUBLIC "-//W3C//DTD SVG 1.0//EN" "http://www.w3.org/TR/2001/REC-SVG-20010904/DTD/svg10.dtd">
<!-- Creator: CorelDRAW X8 -->
<svg xmlns="http://www.w3.org/2000/svg" xml:space="preserve" width="2660px" height="2985px" version="1.0" style="shape-rendering:geometricPrecision; text-rendering:geometricPrecision; image-rendering:optimizeQuality; fill-rule:evenodd; clip-rule:evenodd"
viewBox="0 0 1456 1634"
 xmlns:xlink="http://www.w3.org/1999/xlink">
 <defs>
  <style type="text/css">
   <![CDATA[
    .str0 {stroke:#FEFEFE;stroke-width:15.0592}
    .fil2 {fill:none}
    .fil1 {fill:#00AFEF}
    .fil0 {fill:#FEFEFE;fill-rule:nonzero}
   ]]>
  </style>
 </defs>
 <g id="Camada_x0020_1">
  <metadata id="CorelCorpID_0Corel-Layer"/>
  <path class="fil0" d="M459 704c25,0 45,6 58,16 16,13 22,32 22,55 0,26 -6,45 -22,58 -16,10 -36,16 -58,16 -20,0 -39,-6 -55,-16 -17,-13 -26,-32 -26,-58 0,-23 9,-42 26,-55 13,-10 32,-16 55,-16zm0 126c19,0 29,-3 38,-13 10,-13 13,-26 13,-42 0,-16 -3,-29 -13,-39 -9,-9 -22,-13 -38,-13 -13,0 -26,4 -36,13 -10,10 -13,23 -13,39 0,19 3,32 13,42 10,10 23,13 36,13z"/>
  <path id="_1" class="fil0" d="M685 846l-29 0 0 -84c0,-16 -4,-26 -10,-29 -7,-6 -16,-10 -26,-10 -10,0 -16,4 -26,7 -6,3 -13,6 -16,13 -3,6 -3,16 -3,26l0 77 -29 0 0 -139 26 0 0 20 0 0c6,-10 12,-13 22,-20 10,-3 20,-3 32,-3 10,0 17,0 26,3 10,3 16,7 20,13 6,3 9,10 9,16 4,7 4,13 4,23l0 87 0 0z"/>
  <path id="_2" class="fil0" d="M840 846l-30 0 0 -84c0,-16 -3,-26 -9,-29 -7,-6 -16,-10 -26,-10 -10,0 -16,4 -26,7 -6,3 -13,6 -16,13 -3,6 -3,16 -3,26l0 77 -29 0 0 -139 26 0 0 20 0 0c6,-10 12,-13 22,-20 10,-3 20,-3 32,-3 7,0 17,0 26,3 10,3 16,7 20,13 6,3 9,10 9,16 4,7 4,13 4,23l0 87 0 0z"/>
  <path id="_3" class="fil0" d="M1001 781l-126 0c0,17 7,29 16,36 10,10 20,13 36,13 9,0 19,-3 29,-7 6,-6 13,-13 16,-22l29 3c-3,16 -13,26 -26,36 -13,6 -29,9 -48,9 -26,0 -45,-6 -62,-19 -13,-13 -22,-29 -22,-52 0,-22 9,-42 22,-55 13,-13 33,-19 59,-19 12,0 25,0 38,6 10,4 20,13 29,23 7,10 10,26 10,48l0 0zm-29 -19c0,-13 -7,-23 -16,-29 -10,-6 -20,-10 -32,-10 -13,0 -23,4 -33,10 -9,10 -13,19 -16,29l97 0 0 0z"/>
  <path id="_4" class="fil0" d="M1150 798c-7,19 -13,32 -26,38 -16,10 -29,13 -49,13 -22,0 -42,-6 -55,-19 -16,-13 -22,-32 -22,-52 0,-19 3,-35 13,-45 6,-10 16,-19 29,-23 13,-6 22,-6 35,-6 20,0 36,3 49,10 9,9 19,19 22,32l-29 6c-3,-9 -6,-19 -13,-22 -6,-7 -16,-7 -25,-7 -17,0 -30,4 -39,13 -7,10 -13,23 -13,39 0,19 6,32 13,42 9,10 22,13 35,13 13,0 23,-3 29,-10 10,-3 13,-13 16,-26l30 4 0 0z"/>
  <path id="_5" class="fil0" d="M1243 846c-6,3 -16,3 -22,3 -13,0 -20,-3 -26,-6 -7,-3 -10,-7 -13,-13 0,-7 0,-13 0,-26l0 -81 -23 0 0 -16 23 0 0 -35 29 -16 0 51 29 0 0 16 -29 0 0 84c0,7 0,13 3,16 0,0 7,4 13,4 3,0 10,0 13,0l3 19 0 0z"/>
  <path class="fil1" d="M746 0c329,0 610,216 707,513l-255 0c-87,-164 -258,-274 -452,-274 -255,0 -465,187 -507,429l-239 0c42,-374 358,-668 746,-668l0 0zm-504 836c42,243 249,423 504,423 197,0 371,-113 455,-281l255 0c-97,301 -377,520 -710,520 -384,0 -701,-290 -746,-662l242 0 0 0z"/>
  <rect class="fil2 str0" x="281" y="617" width="1047" height="266"/>
  <polygon class="fil0" points="681,1634 665,1634 633,1589 620,1602 620,1634 607,1634 607,1543 620,1543 620,1589 665,1543 681,1543 643,1579 "/>
  <path id="_1_0" class="fil0" d="M743 1569c0,-3 0,-9 -4,-13 -6,-3 -9,-3 -16,-3 -6,0 -13,0 -16,3 -3,4 -6,7 -6,10 0,3 3,7 6,10 3,0 7,3 16,6 7,0 13,3 20,3 3,4 6,4 9,10 4,3 7,7 7,13 0,7 -3,13 -10,19 -6,7 -13,7 -22,7 -13,0 -23,-3 -30,-7 -6,-6 -9,-12 -9,-22l9 0c0,6 4,10 10,13 3,3 10,6 16,6 10,0 13,0 16,-3 7,-3 7,-6 7,-13 0,-3 0,-6 -7,-10 -3,-3 -9,-3 -19,-6 -10,-3 -19,-7 -23,-10 -3,-3 -6,-9 -6,-16 0,-6 3,-13 10,-16 3,-7 13,-7 22,-7 10,0 16,0 23,7 6,3 10,10 10,19l-13 0 0 0z"/>
  <path id="_2_1" class="fil0" d="M849 1605c-3,10 -6,16 -13,22 -6,7 -13,7 -22,7 -16,0 -26,-3 -33,-13 -6,-10 -9,-19 -9,-32 0,-16 3,-26 9,-36 10,-6 20,-10 33,-10 6,0 16,0 22,7 7,3 10,10 13,19l-13 4c0,-7 -3,-13 -9,-17 -4,-3 -7,-3 -13,-3 -10,0 -20,3 -23,10 -6,6 -6,13 -6,26 0,13 0,19 6,26 7,6 13,9 19,9 10,0 13,0 20,-6 3,-3 6,-10 10,-16l9 3 0 0z"/>
 </g>
</svg>
