<?xml version="1.0" encoding="UTF-8"?>
<!DOCTYPE svg PUBLIC "-//W3C//DTD SVG 1.0//EN" "http://www.w3.org/TR/2001/REC-SVG-20010904/DTD/svg10.dtd">
<!-- Creator: CorelDRAW X8 -->
<svg xmlns="http://www.w3.org/2000/svg" xml:space="preserve" width="3186px" height="3575px" version="1.0" style="shape-rendering:geometricPrecision; text-rendering:geometricPrecision; image-rendering:optimizeQuality; fill-rule:evenodd; clip-rule:evenodd"
viewBox="0 0 2731 3064"
 xmlns:xlink="http://www.w3.org/1999/xlink">
 <defs>
  <style type="text/css">
   <![CDATA[
    .str0 {stroke:#FEFEFE;stroke-width:21.071}
    .fil2 {fill:none}
    .fil1 {fill:#00AFEF}
    .fil0 {fill:#FEFEFE;fill-rule:nonzero}
   ]]>
  </style>
 </defs>
 <g id="Camada_x0020_1">
  <metadata id="CorelCorpID_0Corel-Layer"/>
  <g id="_343135665072">
   <path class="fil0" d="M860 1320c48,0 85,12 109,30 30,25 42,61 42,103 0,49 -12,85 -42,109 -30,18 -67,31 -109,31 -36,0 -73,-13 -103,-31 -30,-24 -49,-60 -49,-109 0,-42 19,-78 49,-103 24,-18 60,-30 103,-30zm0 236c36,0 54,-6 73,-24 18,-24 24,-48 24,-79 0,-30 -6,-54 -24,-72 -19,-19 -43,-25 -73,-25 -24,0 -49,6 -67,25 -18,18 -24,42 -24,72 0,37 6,61 24,79 18,18 43,24 67,24z"/>
   <path id="_1" class="fil0" d="M1284 1587l-55 0 0 -158c0,-30 -6,-48 -18,-54 -12,-13 -30,-19 -48,-19 -19,0 -31,6 -49,13 -12,6 -24,12 -30,24 -6,12 -6,30 -6,48l0 146 -55 0 0 -261 49 0 0 36 0 0c12,-18 24,-24 42,-36 18,-6 37,-6 61,-6 18,0 30,0 48,6 18,6 30,12 37,24 12,6 18,19 18,31 6,12 6,24 6,42l0 164 0 0z"/>
   <path id="_2" class="fil0" d="M1574 1587l-54 0 0 -158c0,-30 -6,-48 -18,-54 -12,-13 -31,-19 -49,-19 -18,0 -30,6 -48,13 -12,6 -24,12 -30,24 -6,12 -6,30 -6,48l0 146 -55 0 0 -261 48 0 0 36 0 0c13,-18 25,-24 43,-36 18,-6 36,-6 60,-6 13,0 31,0 49,6 18,6 30,12 36,24 12,6 18,19 18,31 6,12 6,24 6,42l0 164 0 0z"/>
   <path id="_3" class="fil0" d="M1877 1465l-236 0c0,31 12,55 30,67 18,18 37,24 67,24 18,0 36,-6 54,-12 13,-12 25,-24 31,-42l54 6c-6,30 -24,48 -48,66 -24,13 -55,19 -91,19 -49,0 -85,-13 -115,-37 -24,-24 -43,-54 -43,-97 0,-42 19,-78 43,-103 24,-24 60,-36 109,-36 24,0 48,0 73,12 18,6 36,24 54,43 12,18 18,48 18,90l0 0zm-54 -36c0,-24 -12,-42 -31,-54 -18,-13 -36,-19 -60,-19 -24,0 -43,6 -61,19 -18,18 -24,36 -30,54l182 0 0 0z"/>
   <path id="_4" class="fil0" d="M2156 1496c-12,36 -24,60 -49,72 -30,19 -54,25 -91,25 -42,0 -78,-13 -102,-37 -31,-24 -43,-60 -43,-97 0,-36 6,-66 24,-84 12,-19 31,-37 55,-43 24,-12 42,-12 66,-12 37,0 67,6 91,18 18,18 37,37 43,61l-55 12c-6,-18 -12,-36 -24,-42 -12,-13 -30,-13 -48,-13 -31,0 -55,6 -73,25 -12,18 -24,42 -24,72 0,37 12,61 24,79 18,18 42,24 66,24 25,0 43,-6 55,-18 18,-6 24,-24 30,-48l55 6 0 0z"/>
   <path id="_5" class="fil0" d="M2331 1587c-12,6 -30,6 -42,6 -24,0 -36,-6 -48,-13 -13,-6 -19,-12 -25,-24 0,-12 0,-24 0,-48l0 -152 -42 0 0 -30 42 0 0 -66 55 -31 0 97 54 0 0 30 -54 0 0 158c0,12 0,24 6,30 0,0 12,6 24,6 6,0 18,0 24,0l6 37 0 0z"/>
   <path class="fil1" d="M1399 0c617,0 1144,406 1326,963l-478 0c-164,-309 -485,-515 -848,-515 -479,0 -872,351 -951,805l-448 0c79,-702 672,-1253 1399,-1253l0 0zm-945 1568c79,455 466,794 945,794 369,0 696,-212 854,-527l478 0c-182,563 -708,975 -1332,975 -721,0 -1314,-545 -1399,-1242l454 0 0 0z"/>
   <rect class="fil2 str0" x="527" y="1157" width="1963" height="498"/>
   <polygon class="fil0" points="1278,3064 1247,3064 1187,2979 1163,3004 1163,3064 1138,3064 1138,2895 1163,2895 1163,2979 1247,2895 1278,2895 1205,2961 "/>
   <path id="_1_0" class="fil0" d="M1393 2943c0,-6 0,-18 -6,-24 -12,-6 -18,-6 -31,-6 -12,0 -24,0 -30,6 -6,6 -12,12 -12,18 0,6 6,12 12,18 6,0 12,6 30,12 13,0 25,6 37,6 6,6 12,6 18,18 6,6 12,13 12,25 0,12 -6,24 -18,36 -12,12 -24,12 -43,12 -24,0 -42,-6 -54,-12 -12,-12 -18,-24 -18,-42l18 0c0,12 6,18 18,24 6,6 18,12 30,12 19,0 25,0 31,-6 12,-6 12,-12 12,-24 0,-6 0,-12 -12,-19 -6,-6 -18,-6 -37,-12 -18,-6 -36,-12 -42,-18 -6,-6 -12,-18 -12,-30 0,-12 6,-24 18,-30 6,-12 24,-12 42,-12 19,0 31,0 43,12 12,6 18,18 18,36l-24 0 0 0z"/>
   <path id="_2_1" class="fil0" d="M1593 3010c-6,18 -13,30 -25,42 -12,12 -24,12 -42,12 -30,0 -48,-6 -61,-24 -12,-18 -18,-36 -18,-61 0,-30 6,-48 18,-66 19,-12 37,-18 61,-18 12,0 30,0 42,12 12,6 19,18 25,36l-25 6c0,-12 -6,-24 -18,-30 -6,-6 -12,-6 -24,-6 -18,0 -36,6 -42,18 -13,12 -13,24 -13,48 0,25 0,37 13,49 12,12 24,18 36,18 18,0 24,0 36,-12 6,-6 12,-18 18,-30l19 6 0 0z"/>
  </g>
 </g>
</svg>
