<?xml version="1.0" encoding="UTF-8"?>
<!DOCTYPE svg PUBLIC "-//W3C//DTD SVG 1.0//EN" "http://www.w3.org/TR/2001/REC-SVG-20010904/DTD/svg10.dtd">
<!-- Creator: CorelDRAW X8 -->
<svg xmlns="http://www.w3.org/2000/svg" xml:space="preserve" width="2923px" height="2014px" version="1.0" style="shape-rendering:geometricPrecision; text-rendering:geometricPrecision; image-rendering:optimizeQuality; fill-rule:evenodd; clip-rule:evenodd"
viewBox="0 0 14909 10274"
 xmlns:xlink="http://www.w3.org/1999/xlink">
 <defs>
  <style type="text/css">
   <![CDATA[
    .str0 {stroke:#373435;stroke-width:4.59104}
    .fil0 {fill:#00AFEF}
    .fil1 {fill:#373435;fill-rule:nonzero}
   ]]>
  </style>
 </defs>
 <g id="Camada_x0020_1">
  <metadata id="CorelCorpID_0Corel-Layer"/>
  <path class="fil0" d="M5115 0c2107,0 3924,1291 4698,3117l-1847 0c-643,-901 -1688,-1478 -2851,-1478 -1749,0 -3189,1284 -3476,2945l-1639 0c288,-2569 2458,-4584 5115,-4584l0 0zm-3454 5735c288,1661 1705,2901 3454,2901 1167,0 2218,-579 2854,-1479l1849 0c-783,1826 -2591,3117 -4703,3117 -2635,0 -4805,-1992 -5115,-4539l1661 0 0 0z"/>
  <g>
   <path class="fil1" d="M14852 6549l-10615 0 0 -114 10615 0 57 57 -57 57zm57 -57l0 57 -57 0 57 -57zm0 -2694l0 2694 -114 0 0 -2694 57 -57 57 57zm-57 -57l57 0 0 57 -57 -57zm-10615 0l10615 0 0 114 -10615 0 -57 -57 57 -57zm-57 57l0 -57 57 0 -57 57zm0 2694l0 -2694 114 0 0 2694 -57 57 -57 -57zm57 57l-57 0 0 -57 57 57z"/>
  </g>
  <g>
   <polygon class="fil1 str0" points="13781,7314 13684,7314 13488,7041 13410,7119 13410,7314 13332,7314 13332,6768 13410,6768 13410,7041 13684,6768 13781,6768 13547,6982 "/>
   <path id="_1" class="fil1 str0" d="M14152 6924c0,-20 0,-59 -20,-78 -39,-20 -58,-20 -97,-20 -39,0 -78,0 -98,20 -19,19 -39,39 -39,58 0,20 20,39 39,59 20,0 39,19 98,39 39,0 78,19 117,19 19,20 39,20 58,59 20,19 39,39 39,78 0,39 -19,78 -58,117 -39,39 -78,39 -137,39 -78,0 -136,-19 -175,-39 -39,-39 -59,-78 -59,-137l59 0c0,39 19,59 58,78 20,20 59,40 98,40 58,0 78,0 97,-20 39,-20 39,-39 39,-78 0,-20 0,-39 -39,-59 -19,-19 -58,-19 -117,-39 -58,-19 -117,-39 -136,-58 -20,-20 -39,-59 -39,-98 0,-39 19,-78 58,-97 20,-39 78,-39 137,-39 58,0 97,0 136,39 39,19 59,58 59,117l-78 0 0 0z"/>
   <path id="_2" class="fil1 str0" d="M14796 7138c-20,59 -39,98 -78,137 -39,39 -78,39 -137,39 -97,0 -156,-19 -195,-78 -39,-59 -58,-117 -58,-195 0,-98 19,-156 58,-215 59,-39 117,-58 195,-58 39,0 98,0 137,39 39,19 58,58 78,117l-78 19c0,-39 -20,-78 -59,-97 -19,-20 -39,-20 -78,-20 -58,0 -117,20 -136,59 -39,39 -39,78 -39,156 0,78 0,117 39,156 39,39 78,59 117,59 58,0 78,0 117,-40 19,-19 39,-58 58,-97l59 19 0 0z"/>
  </g>
  <g>
   <path class="fil1 str0" d="M6038 4682c262,0 459,66 590,164 164,131 229,328 229,557 0,262 -65,458 -229,589 -164,99 -360,164 -590,164 -196,0 -393,-65 -556,-164 -164,-131 -262,-327 -262,-589 0,-229 98,-426 262,-557 131,-98 327,-164 556,-164zm0 1278c197,0 295,-33 393,-131 99,-131 132,-262 132,-426 0,-164 -33,-295 -132,-393 -98,-98 -229,-131 -393,-131 -131,0 -262,33 -360,131 -98,98 -131,229 -131,393 0,196 33,327 131,426 98,98 229,131 360,131z"/>
   <path id="_1_0" class="fil1 str0" d="M8331 6123l-295 0 0 -851c0,-164 -32,-262 -98,-295 -65,-65 -164,-98 -262,-98 -98,0 -164,33 -262,65 -65,33 -131,66 -164,131 -32,66 -32,164 -32,262l0 786 -295 0 0 -1408 262 0 0 197 0 0c65,-99 131,-131 229,-197 98,-33 197,-33 328,-33 98,0 163,0 262,33 98,33 163,66 196,131 66,33 98,98 98,164 33,65 33,131 33,229l0 884 0 0z"/>
   <path id="_2_1" class="fil1 str0" d="M9903 6123l-295 0 0 -851c0,-164 -32,-262 -98,-295 -65,-65 -164,-98 -262,-98 -98,0 -164,33 -262,65 -65,33 -131,66 -164,131 -32,66 -32,164 -32,262l0 786 -295 0 0 -1408 262 0 0 197 0 0c65,-99 131,-131 229,-197 98,-33 197,-33 328,-33 65,0 163,0 262,33 98,33 163,66 196,131 66,33 98,98 98,164 33,65 33,131 33,229l0 884 0 0z"/>
   <path id="_3" class="fil1 str0" d="M11541 5468l-1278 0c0,164 66,295 164,361 98,98 197,131 360,131 99,0 197,-33 295,-66 66,-65 131,-131 164,-229l295 33c-33,163 -131,262 -262,360 -131,65 -295,98 -492,98 -262,0 -458,-65 -622,-196 -131,-131 -229,-295 -229,-524 0,-230 98,-426 229,-557 131,-131 328,-197 590,-197 131,0 262,0 393,66 98,33 196,131 294,229 66,98 99,262 99,491l0 0zm-295 -196c0,-131 -66,-229 -164,-295 -98,-65 -196,-98 -327,-98 -131,0 -230,33 -328,98 -98,98 -131,197 -164,295l983 0 0 0z"/>
   <path id="_4" class="fil1 str0" d="M13047 5632c-65,197 -131,328 -262,393 -164,98 -295,131 -491,131 -229,0 -426,-65 -557,-196 -164,-131 -229,-328 -229,-524 0,-197 33,-361 131,-459 65,-98 164,-196 295,-229 131,-66 229,-66 360,-66 196,0 360,33 491,99 98,98 197,196 229,327l-294 66c-33,-99 -66,-197 -131,-230 -66,-65 -164,-65 -262,-65 -164,0 -295,33 -393,131 -66,98 -131,229 -131,393 0,196 65,327 131,426 98,98 229,131 360,131 131,0 229,-33 295,-99 98,-32 131,-131 163,-262l295 33 0 0z"/>
   <path id="_5" class="fil1 str0" d="M13997 6123c-66,33 -164,33 -229,33 -131,0 -197,-33 -262,-65 -66,-33 -99,-66 -131,-131 0,-66 0,-131 0,-262l0 -819 -230 0 0 -164 230 0 0 -360 294 -164 0 524 295 0 0 164 -295 0 0 851c0,66 0,131 33,164 0,0 66,33 131,33 33,0 98,0 131,0l33 196 0 0z"/>
  </g>
 </g>
</svg>
