<?xml version="1.0" encoding="UTF-8"?>
<!DOCTYPE svg PUBLIC "-//W3C//DTD SVG 1.0//EN" "http://www.w3.org/TR/2001/REC-SVG-20010904/DTD/svg10.dtd">
<!-- Creator: CorelDRAW X8 -->
<svg xmlns="http://www.w3.org/2000/svg" xml:space="preserve" width="1365px" height="1344px" version="1.0" style="shape-rendering:geometricPrecision; text-rendering:geometricPrecision; image-rendering:optimizeQuality; fill-rule:evenodd; clip-rule:evenodd"
viewBox="0 0 723 712"
 xmlns:xlink="http://www.w3.org/1999/xlink">
 <defs>
  <style type="text/css">
   <![CDATA[
    .str0 {stroke:#373435;stroke-width:1.25163}
    .str1 {stroke:#FEFEFE;stroke-width:4.66357}
    .fil3 {fill:none}
    .fil2 {fill:#00AFEF}
    .fil0 {fill:#2A344E}
    .fil1 {fill:#FEFEFE;fill-rule:nonzero}
   ]]>
  </style>
 </defs>
 <g id="Camada_x0020_1">
  <metadata id="CorelCorpID_0Corel-Layer"/>
  <rect class="fil0 str0" x="1" y="1" width="722" height="711" rx="126" ry="126"/>
  <path class="fil1" d="M278 326c8,0 14,2 18,5 5,4 7,10 7,17 0,8 -2,14 -7,18 -5,3 -11,5 -18,5 -6,0 -12,-2 -17,-5 -5,-4 -8,-10 -8,-18 0,-7 3,-13 8,-17 4,-3 10,-5 17,-5zm0 39c6,0 9,-1 12,-4 3,-4 4,-8 4,-13 0,-5 -1,-9 -4,-12 -3,-3 -7,-4 -12,-4 -4,0 -8,1 -11,4 -3,3 -4,7 -4,12 0,6 1,10 4,13 3,3 7,4 11,4z"/>
  <path id="1" class="fil1" d="M348 370l-9 0 0 -26c0,-5 -1,-8 -3,-9 -2,-2 -5,-3 -8,-3 -3,0 -5,1 -8,2 -2,1 -4,2 -5,4 -1,2 -1,5 -1,8l0 24 -9 0 0 -43 8 0 0 6 0 0c2,-3 4,-4 7,-6 3,-1 6,-1 10,-1 3,0 5,0 8,1 3,1 5,2 6,4 2,1 3,3 3,5 1,2 1,4 1,7l0 27z"/>
  <path id="2" class="fil1" d="M396 370l-9 0 0 -26c0,-5 -1,-8 -3,-9 -2,-2 -5,-3 -8,-3 -3,0 -5,1 -8,2 -2,1 -4,2 -5,4 -1,2 -1,5 -1,8l0 24 -9 0 0 -43 8 0 0 6 0 0c2,-3 4,-4 7,-6 3,-1 6,-1 10,-1 2,0 5,0 8,1 3,1 5,2 6,4 2,1 3,3 3,5 1,2 1,4 1,7l0 27z"/>
  <path id="3" class="fil1" d="M446 350l-39 0c0,5 2,9 5,11 3,3 6,4 11,4 3,0 6,-1 9,-2 2,-2 4,-4 5,-7l9 1c-1,5 -4,8 -8,11 -4,2 -9,3 -15,3 -8,0 -14,-2 -19,-6 -4,-4 -7,-9 -7,-16 0,-7 3,-13 7,-17 4,-4 10,-6 18,-6 4,0 8,0 12,2 3,1 6,4 9,7 2,3 3,8 3,15zm-9 -6c0,-4 -2,-7 -5,-9 -3,-2 -6,-3 -10,-3 -4,0 -7,1 -10,3 -3,3 -4,6 -5,9l30 0z"/>
  <path id="4" class="fil1" d="M492 355c-2,6 -4,10 -8,12 -5,3 -9,4 -15,4 -7,0 -13,-2 -17,-6 -5,-4 -7,-10 -7,-16 0,-6 1,-11 4,-14 2,-3 5,-6 9,-7 4,-2 7,-2 11,-2 6,0 11,1 15,3 3,3 6,6 7,10l-9 2c-1,-3 -2,-6 -4,-7 -2,-2 -5,-2 -8,-2 -5,0 -9,1 -12,4 -2,3 -4,7 -4,12 0,6 2,10 4,13 3,3 7,4 11,4 4,0 7,-1 9,-3 3,-1 4,-4 5,-8l9 1z"/>
  <path id="5" class="fil1" d="M521 370c-2,1 -5,1 -7,1 -4,0 -6,-1 -8,-2 -2,-1 -3,-2 -4,-4 0,-2 0,-4 0,-8l0 -25 -7 0 0 -5 7 0 0 -11 9 -5 0 16 9 0 0 5 -9 0 0 26c0,2 0,4 1,5 0,0 2,1 4,1 1,0 3,0 4,0l1 6z"/>
  <path class="fil2" d="M367 108c102,0 189,67 219,159l-79 0c-27,-51 -80,-85 -140,-85 -79,0 -144,58 -157,133l-74 0c13,-116 111,-207 231,-207zm-156 259c13,75 77,131 156,131 61,0 115,-35 141,-87l79 0c-30,93 -117,161 -220,161 -119,0 -217,-90 -231,-205l75 0z"/>
  <rect class="fil3 str1" x="223" y="299" width="324.116" height="82.2631"/>
  <polygon class="fil1" points="347,614 342,614 332,600 328,604 328,614 324,614 324,586 328,586 328,600 342,586 347,586 335,597 "/>
  <path id="1" class="fil1" d="M366 594c0,-1 0,-3 -1,-4 -2,-1 -3,-1 -5,-1 -2,0 -4,0 -5,1 -1,1 -2,2 -2,3 0,1 1,2 2,3 1,0 2,1 5,2 2,0 4,1 6,1 1,1 2,1 3,3 1,1 2,2 2,4 0,2 -1,4 -3,6 -2,2 -4,2 -7,2 -4,0 -7,-1 -9,-2 -2,-2 -3,-4 -3,-7l3 0c0,2 1,3 3,4 1,1 3,2 5,2 3,0 4,0 5,-1 2,-1 2,-2 2,-4 0,-1 0,-2 -2,-3 -1,-1 -3,-1 -6,-2 -3,-1 -6,-2 -7,-3 -1,-1 -2,-3 -2,-5 0,-2 1,-4 3,-5 1,-2 4,-2 7,-2 3,0 5,0 7,2 2,1 3,3 3,6l-4 0z"/>
  <path id="2" class="fil1" d="M399 605c-1,3 -2,5 -4,7 -2,2 -4,2 -7,2 -5,0 -8,-1 -10,-4 -2,-3 -3,-6 -3,-10 0,-5 1,-8 3,-11 3,-2 6,-3 10,-3 2,0 5,0 7,2 2,1 3,3 4,6l-4 1c0,-2 -1,-4 -3,-5 -1,-1 -2,-1 -4,-1 -3,0 -6,1 -7,3 -2,2 -2,4 -2,8 0,4 0,6 2,8 2,2 4,3 6,3 3,0 4,0 6,-2 1,-1 2,-3 3,-5l3 1z"/>
 </g>
</svg>
