<?xml version="1.0" encoding="UTF-8"?>
<!DOCTYPE svg PUBLIC "-//W3C//DTD SVG 1.0//EN" "http://www.w3.org/TR/2001/REC-SVG-20010904/DTD/svg10.dtd">
<!-- Creator: CorelDRAW X8 -->
<svg xmlns="http://www.w3.org/2000/svg" xml:space="preserve" width="2923px" height="2014px" version="1.0" style="shape-rendering:geometricPrecision; text-rendering:geometricPrecision; image-rendering:optimizeQuality; fill-rule:evenodd; clip-rule:evenodd"
viewBox="0 0 54899 37833"
 xmlns:xlink="http://www.w3.org/1999/xlink">
 <defs>
  <style type="text/css">
   <![CDATA[
    .str0 {stroke:#FEFEFE;stroke-width:16.9052}
    .fil0 {fill:#00AFEF}
    .fil1 {fill:#FEFEFE;fill-rule:nonzero}
   ]]>
  </style>
 </defs>
 <g id="Camada_x0020_1">
  <metadata id="CorelCorpID_0Corel-Layer"/>
  <path class="fil0" d="M18835 0c7756,0 14449,4752 17299,11478l-6802 0c-2369,-3319 -6214,-5444 -10497,-5444 -6441,0 -11741,4729 -12801,10844l-6034 0c1060,-9458 9051,-16878 18835,-16878l0 0zm-12720 21118c1060,6115 6278,10681 12720,10681 4297,0 8168,-2130 10509,-5444l6810 0c-2886,6724 -9543,11478 -17319,11478 -9703,0 -17693,-7338 -18835,-16715l6115 0 0 0z"/>
  <g>
   <path class="fil1" d="M54689 24116l-39087 0 0 -420 39087 0 210 210 -210 210zm210 -210l0 210 -210 0 210 -210zm0 -9921l0 9921 -420 0 0 -9921 210 -209 210 209zm-210 -209l210 0 0 209 -210 -209zm-39087 0l39087 0 0 419 -39087 0 -209 -210 209 -209zm-209 209l0 -209 209 0 -209 209zm0 9921l0 -9921 419 0 0 9921 -210 210 -209 -210zm209 210l-209 0 0 -210 209 210z"/>
  </g>
  <g>
   <polygon class="fil1 str0" points="50745,26932 50386,26932 49667,25926 49380,26213 49380,26932 49093,26932 49093,24920 49380,24920 49380,25926 50386,24920 50745,24920 49883,25710 "/>
   <path id="_1" class="fil1 str0" d="M52110 25495c0,-72 0,-216 -71,-288 -144,-71 -216,-71 -360,-71 -143,0 -287,0 -359,71 -72,72 -144,144 -144,216 0,72 72,144 144,216 72,0 144,71 359,143 144,0 288,72 431,72 72,72 144,72 216,216 72,72 144,143 144,287 0,144 -72,288 -216,431 -144,144 -287,144 -503,144 -287,0 -503,-72 -647,-144 -143,-143 -215,-287 -215,-503l215 0c0,144 72,216 216,288 72,72 216,143 359,143 216,0 288,0 360,-71 143,-72 143,-144 143,-288 0,-72 0,-144 -143,-215 -72,-72 -216,-72 -432,-144 -215,-72 -431,-144 -503,-216 -71,-72 -143,-215 -143,-359 0,-144 72,-287 215,-359 72,-144 288,-144 503,-144 216,0 360,0 503,144 144,72 216,215 216,431l-288 0 0 0z"/>
   <path id="_2" class="fil1 str0" d="M54481 26285c-71,216 -143,360 -287,503 -144,144 -287,144 -503,144 -359,0 -575,-72 -718,-287 -144,-216 -216,-432 -216,-719 0,-359 72,-575 216,-790 215,-144 431,-216 718,-216 144,0 359,0 503,144 144,72 216,215 287,431l-287 72c0,-144 -72,-288 -215,-360 -72,-71 -144,-71 -288,-71 -215,0 -431,71 -503,215 -144,144 -144,288 -144,575 0,287 0,431 144,575 144,144 288,215 431,215 216,0 288,0 431,-143 72,-72 144,-216 216,-360l215 72 0 0z"/>
  </g>
  <g>
   <path class="fil1 str0" d="M22235 17241c965,0 1688,242 2171,603 603,483 844,1206 844,2050 0,965 -241,1689 -844,2171 -603,362 -1327,603 -2171,603 -723,0 -1447,-241 -2050,-603 -603,-482 -965,-1206 -965,-2171 0,-844 362,-1567 965,-2050 482,-361 1206,-603 2050,-603zm0 4703c724,0 1085,-120 1447,-482 362,-482 483,-965 483,-1568 0,-603 -121,-1085 -483,-1447 -362,-362 -844,-482 -1447,-482 -482,0 -965,120 -1326,482 -362,362 -483,844 -483,1447 0,724 121,1206 483,1568 361,362 844,482 1326,482z"/>
   <path id="_1_0" class="fil1 str0" d="M30677 22547l-1086 0 0 -3135c0,-603 -120,-965 -361,-1085 -242,-242 -603,-362 -965,-362 -362,0 -603,120 -965,241 -241,121 -482,241 -603,482 -121,242 -121,603 -121,965l0 2894 -1085 0 0 -5185 965 0 0 724 0 0c241,-362 482,-483 844,-724 362,-121 724,-121 1206,-121 362,0 603,0 965,121 362,121 603,241 723,482 241,121 362,362 362,603 121,242 121,483 121,844l0 3257 0 -1z"/>
   <path id="_2_1" class="fil1 str0" d="M36465 22547l-1085 0 0 -3135c0,-603 -121,-965 -362,-1085 -241,-242 -603,-362 -965,-362 -362,0 -603,120 -964,241 -242,121 -483,241 -603,482 -121,242 -121,603 -121,965l0 2894 -1085 0 0 -5185 964 0 0 724 0 0c242,-362 483,-483 845,-724 361,-121 723,-121 1205,-121 242,0 603,0 965,121 362,121 603,241 724,482 241,121 362,362 362,603 120,242 120,483 120,844l0 3257 0 -1z"/>
   <path id="_3" class="fil1 str0" d="M42495 20136l-4703 0c0,603 241,1085 603,1326 361,362 723,483 1326,483 362,0 724,-121 1085,-242 242,-241 483,-482 603,-844l1086 121c-121,603 -483,964 -965,1326 -482,241 -1085,362 -1809,362 -965,0 -1688,-241 -2291,-724 -483,-482 -844,-1085 -844,-1929 0,-844 361,-1568 844,-2050 482,-482 1206,-724 2171,-724 482,0 964,0 1447,242 361,120 723,482 1085,844 241,361 362,964 362,1809l0 0zm-1086 -724c0,-482 -241,-844 -603,-1085 -361,-242 -723,-362 -1205,-362 -483,0 -845,120 -1206,362 -362,361 -483,723 -603,1085l3617 0 0 0z"/>
   <path id="_4" class="fil1 str0" d="M48042 20739c-241,723 -482,1206 -965,1447 -603,361 -1085,482 -1809,482 -844,0 -1567,-241 -2050,-723 -603,-483 -844,-1206 -844,-1930 0,-724 121,-1326 483,-1688 241,-362 603,-724 1085,-844 482,-242 844,-242 1326,-242 724,0 1327,121 1809,362 362,362 724,724 845,1206l-1086 241c-120,-361 -241,-723 -482,-844 -241,-241 -603,-241 -965,-241 -603,0 -1085,121 -1447,482 -241,362 -482,844 -482,1447 0,724 241,1206 482,1568 362,362 844,483 1326,483 483,0 845,-121 1086,-362 362,-121 482,-483 603,-965l1085 121 0 0z"/>
   <path id="_5" class="fil1 str0" d="M51539 22547c-241,121 -603,121 -844,121 -482,0 -723,-121 -965,-241 -241,-121 -361,-241 -482,-483 0,-241 0,-482 0,-964l0 -3015 -844 0 0 -603 844 0 0 -1327 1085 -603 0 1930 1086 0 0 603 -1086 0 0 3135c0,241 0,483 121,603 0,0 241,121 482,121 121,0 362,0 483,0l120 723 0 0z"/>
  </g>
 </g>
</svg>
