<?xml version="1.0" encoding="UTF-8"?>
<!DOCTYPE svg PUBLIC "-//W3C//DTD SVG 1.1//EN" "http://www.w3.org/Graphics/SVG/1.1/DTD/svg11.dtd">
<!-- Creator: CorelDRAW X8 -->
<svg xmlns="http://www.w3.org/2000/svg" xml:space="preserve" width="27.1783mm" height="25.4mm" version="1.1" style="shape-rendering:geometricPrecision; text-rendering:geometricPrecision; image-rendering:optimizeQuality; fill-rule:evenodd; clip-rule:evenodd"
viewBox="0 0 396 370"
 xmlns:xlink="http://www.w3.org/1999/xlink">
 <defs>
  <style type="text/css">
   <![CDATA[
    .fil1 {fill:#ED3237}
    .fil2 {fill:#00AFEF}
    .fil0 {fill:black}
   ]]>
  </style>
 </defs>
 <g id="Camada_x0020_1">
  <metadata id="CorelCorpID_0Corel-Layer"/>
  <g id="_293639270960">
   <path class="fil0" d="M324 0l-308 0c-9,0 -16,7 -16,16l0 254c0,9 7,16 16,16l137 0c4,-11 10,-21 19,-30l14 -14 0 -3 2 0 12 -11c-1,-3 -2,-6 -3,-8l-158 0 0 -154 262 0 0 66c13,-6 26,-9 39,-8l0 -108c0,-9 -7,-16 -16,-16zm-107 286l14 0c-1,-2 -3,-5 -4,-7l-1 -2 -9 9zm101 -76c6,-2 12,-4 18,-5 2,-1 3,-1 4,-1l0 -26c-7,-2 -15,-1 -21,5l-16 17c5,2 10,6 15,10zm-205 29l41 0 0 26 -41 0 0 -26zm-73 0l41 0 0 26 -41 0 0 -26zm41 -192l-41 0 0 -26 41 0 0 26zm73 0l-41 0 0 -26 41 0 0 26zm73 0l-41 0 0 -26 41 0 0 26zm73 0l-41 0 0 -26 41 0 0 26z"/>
   <path class="fil1" d="M154 89c-2,-3 -6,-3 -9,-2 -3,2 -5,5 -5,8l0 88c0,4 2,7 5,8 1,0 3,1 4,1 2,0 4,-1 5,-2l53 -44c2,-2 3,-4 3,-7 0,-2 -1,-5 -3,-6l-53 -44z"/>
   <g>
    <path class="fil2" d="M378 242l-44 44c-25,24 -64,24 -89,0 -3,-4 -6,-8 -9,-13l21 -20c1,-1 2,-2 3,-3 1,5 4,10 8,14 12,12 32,12 44,0l44 -44c12,-13 12,-32 0,-45 -12,-12 -32,-12 -44,0l-16 16c-13,-5 -26,-6 -40,-4l34 -34c24,-24 64,-24 88,0 24,25 24,64 0,89zm-117 72l-16 16c-12,12 -31,12 -44,0 -12,-12 -12,-32 0,-44l44 -44c13,-13 32,-13 45,0 3,3 6,8 7,13 1,-1 3,-1 4,-2l20 -21c-2,-4 -5,-9 -9,-12 -25,-25 -64,-25 -89,0l-44 44c-24,24 -24,64 0,88 25,24 64,24 89,0l33 -33c-13,1 -27,0 -40,-5z"/>
   </g>
  </g>
 </g>
</svg>
