<?xml version="1.0" encoding="UTF-8"?>
<!DOCTYPE svg PUBLIC "-//W3C//DTD SVG 1.1//EN" "http://www.w3.org/Graphics/SVG/1.1/DTD/svg11.dtd">
<!-- Creator: CorelDRAW X8 -->
<svg xmlns="http://www.w3.org/2000/svg" xml:space="preserve" width="33.5139mm" height="22.4941mm" version="1.1" style="shape-rendering:geometricPrecision; text-rendering:geometricPrecision; image-rendering:optimizeQuality; fill-rule:evenodd; clip-rule:evenodd"
viewBox="0 0 564 379"
 xmlns:xlink="http://www.w3.org/1999/xlink">
 <defs>
  <style type="text/css">
   <![CDATA[
    .fil1 {fill:#ED3237}
    .fil0 {fill:black}
   ]]>
  </style>
 </defs>
 <g id="Camada_x0020_1">
  <metadata id="CorelCorpID_0Corel-Layer"/>
  <g id="_292933130608">
   <path class="fil0" d="M547 63l-107 60 0 -50c0,-18 -14,-33 -32,-33l-148 0 0 -20c0,-11 -7,-20 -18,-20l-58 0c-11,0 -20,9 -20,20l0 20 -28 0 0 -20c0,-11 -8,-20 -19,-20l-58 0c-11,0 -21,9 -21,20l0 20 -5 0c-18,0 -33,15 -33,33l0 273c0,18 15,33 33,33l375 0c18,0 32,-15 32,-33l0 -51 107 60c9,5 17,1 17,-10l0 -273c0,-10 -8,-14 -17,-9zm-327 252c-59,0 -107,-48 -107,-107 0,-59 48,-107 107,-107 60,0 108,48 108,107 0,59 -48,107 -108,107z"/>
   <path class="fil1" d="M281 197l-84 -57c-8,-6 -15,-2 -15,8l0 120c0,10 7,14 15,8l84 -57c8,-6 8,-16 0,-22z"/>
  </g>
 </g>
</svg>
